<svg xmlns="http://www.w3.org/2000/svg" viewBox="0 0 1015 132">
  <g aria-label="MEDIAPLEX">
    <path aria-label="M" fill="#5938eb" d="m103.64,55.99l-30.12,51.9l-16.82,0l-29.94,-51.61l0,75.82l-26.76,0l0,-132.1l24.28,0l40.91,71.99l40.93,-71.99l24.12,0l0,132.1l-26.59,0l0,-76.11z" />
    <path aria-label="E" fill="#5938eb" d="m157.57,132.1l85.53,0l0,-24.72l-85.53,0l0,24.72zm0,-53.17l85.53,0l0,-25.24l-85.53,0l0,25.24zm0,-78.93l0,25.24l85.53,0l0,-25.24l-85.53,0z" />
    <path aria-label="D" fill="#5938eb" d="m267.54,132.28l0,-132.28l43.36,0c8.97,0 17.68,1.72 25.87,5.11a66.09,66.09 0 0 1 21.22,14.02a65.41,65.41 0 0 1 14.36,21.02c3.49,8.19 5.27,16.91 5.27,25.91c0,9.01 -1.78,17.74 -5.27,25.93a65.71,65.71 0 0 1 -14.35,21.07a66.19,66.19 0 0 1 -21.22,14.1c-8.19,3.4 -16.92,5.13 -25.89,5.13l-43.36,0zm43.36,-26.59c10.78,0 20.88,-4.1 28.45,-11.57c7.54,-7.44 11.69,-17.42 11.69,-28.07c0,-10.63 -4.15,-20.56 -11.68,-27.96c-7.55,-7.42 -17.65,-11.5 -28.46,-11.5l-16.77,0l0,79.1l16.77,0z" />
    <path aria-label="I" fill="#5938eb" d="m400.83,8.47l26.59,-8.47l0,132.1l-26.59,0l0,-123.64z" />

    <g aria-label="A">
      <path fill="#5938eb" d="m515.29,0l-22.93,0l-50.04,132.1l28.16,0l33.3,-91.58l33.61,91.58l28.14,0l-50.24,-132.1z" />
      <path fill="#78cda1" d="m504.02,132.1l-21.02,-32.54l41.87,0l-20.85,32.54z" />
    </g>

    <path aria-label="P" fill="#5938eb" d="m662.19,12.44c-8,-8.25 -19.66,-12.44 -34.7,-12.44l-47.93,0l0,132.1l26.58,0l0,-106.87l19.83,0c6.54,0 11.8,1.56 15.15,4.52c3.32,2.89 4.99,7.32 4.99,13.09c0,5.59 -1.62,9.93 -4.83,12.89c-3.75,3.47 -9.7,5.23 -17.7,5.23l-4.46,0l0,25.24l5.81,0c6.88,0 13.23,-0.83 18.86,-2.46c5.99,-1.74 11.19,-4.4 15.48,-7.9c4.51,-3.71 8,-8.36 10.36,-13.81c2.37,-5.51 3.57,-11.83 3.57,-18.84c0,-12.67 -3.82,-23.31 -11.03,-30.76z" />
    <path aria-label="L" fill="#5938eb" d="m692.82,8.47l26.59,-8.47l0,106.87l59.45,0l0,25.24l-86.04,0l0,-123.64z" />
    <path aria-label="E" fill="#5938eb" d="m796.49,132.1l85.53,0l0,-24.72l-85.53,0l0,24.72zm0,-53.17l85.53,0l0,-25.24l-85.53,0l0,25.24zm0,-78.93l0,25.24l85.53,0l0,-25.24l-85.53,0z" />

    <g aria-label="X">
      <path fill="#5938eb" d="m983.42,0l-29.8,44.11l-29.95,-44.11l-31.35,0l44.27,66.04l-44.87,66.07l31.42,0l30.24,-44.11l0.04,0.06l60.5,-88.05l-30.51,0z" />
      <path fill="#78cda1" d="m993.22,99.56l-31.9,0l22.32,32.54l31.78,0l-22.19,-32.54z" />
    </g>
  </g>
</svg>